<svg width="1307" height="735" viewBox="0 0 1307 735" fill="none" xmlns="http://www.w3.org/2000/svg">
<path opacity="0.12" d="M904.181 683.345C904.898 683.266 905.616 683.476 906.179 683.927C906.741 684.378 907.101 685.035 907.18 685.752C907.258 686.468 907.049 687.187 906.597 687.75C906.146 688.312 905.49 688.672 904.773 688.751L896.664 689.639C895.947 689.717 895.228 689.508 894.666 689.056C894.103 688.605 893.743 687.949 893.664 687.232C893.586 686.515 893.795 685.796 894.247 685.234C894.698 684.671 895.355 684.311 896.072 684.233L904.181 683.345ZM919.511 673.459C919.433 672.742 919.072 672.086 918.51 671.634C917.948 671.183 917.229 670.973 916.512 671.052L894.887 673.42C894.17 673.499 893.514 673.859 893.063 674.421C892.611 674.984 892.402 675.703 892.48 676.42C892.559 677.136 892.919 677.793 893.481 678.244C894.044 678.696 894.763 678.905 895.479 678.827L917.104 676.458C917.821 676.38 918.477 676.02 918.929 675.457C919.38 674.895 919.59 674.176 919.511 673.459ZM894.295 668.014L915.92 665.646C916.637 665.567 917.293 665.207 917.744 664.645C918.196 664.082 918.405 663.364 918.327 662.647C918.248 661.93 917.888 661.273 917.326 660.822C916.763 660.371 916.045 660.161 915.328 660.24L893.703 662.608C892.986 662.687 892.33 663.047 891.878 663.609C891.427 664.172 891.218 664.89 891.296 665.607C891.375 666.324 891.735 666.98 892.297 667.432C892.86 667.883 893.578 668.093 894.295 668.014ZM930.712 700.802L931.847 711.163C931.889 711.548 931.816 711.938 931.637 712.282C931.458 712.626 931.181 712.909 930.841 713.096C930.501 713.283 930.113 713.364 929.727 713.33C929.341 713.296 928.973 713.149 928.67 712.906L926.364 711.057L924.513 713.361C924.27 713.664 923.943 713.887 923.574 714.004C923.204 714.121 922.807 714.125 922.435 714.017C922.063 713.908 921.731 713.691 921.481 713.394C921.232 713.097 921.077 712.733 921.035 712.347L919.9 701.986C917.709 701.027 915.896 699.371 914.744 697.275C913.592 695.179 913.166 692.761 913.531 690.397C913.897 688.033 915.033 685.857 916.764 684.206C918.496 682.556 920.724 681.524 923.102 681.272C924.017 681.184 924.94 681.213 925.847 681.36L923.733 662.055C923.497 659.904 922.417 657.935 920.73 656.581C919.043 655.226 916.886 654.598 914.736 654.834L893.111 657.202C890.96 657.437 888.991 658.518 887.637 660.205C886.283 661.892 885.654 664.049 885.89 666.199L889.443 698.636C889.678 700.787 890.758 702.756 892.446 704.11C894.133 705.464 896.289 706.093 898.44 705.857L911.955 704.377C912.672 704.299 913.391 704.508 913.953 704.959C914.516 705.411 914.876 706.067 914.954 706.784C915.033 707.501 914.823 708.22 914.372 708.782C913.921 709.345 913.264 709.705 912.547 709.783L899.032 711.263C895.448 711.652 891.857 710.603 889.046 708.346C886.235 706.09 884.433 702.811 884.036 699.228L880.484 666.791C880.096 663.208 881.145 659.616 883.401 656.805C885.657 653.994 888.936 652.192 892.519 651.796L914.144 649.427C917.727 649.039 921.319 650.088 924.13 652.345C926.941 654.601 928.742 657.88 929.139 661.463L931.621 684.12C932.81 685.193 933.744 686.518 934.354 687.999C934.965 689.48 935.237 691.078 935.15 692.678C935.062 694.277 934.619 695.837 933.851 697.242C933.083 698.648 932.011 699.864 930.712 700.802ZM929.693 691.492C929.576 690.423 929.144 689.413 928.453 688.589C927.761 687.765 926.841 687.164 925.808 686.863C924.776 686.562 923.677 686.574 922.651 686.898C921.625 687.221 920.718 687.842 920.045 688.68C919.372 689.519 918.962 690.539 918.869 691.611C918.775 692.682 919.001 693.757 919.518 694.7C920.036 695.643 920.821 696.412 921.775 696.909C922.729 697.405 923.809 697.608 924.879 697.491C926.312 697.334 927.625 696.613 928.528 695.489C929.431 694.364 929.85 692.926 929.693 691.492Z" fill="#F94E54"/>
<path opacity="0.12" d="M864.857 16.7136C864.564 15.1095 863.92 13.5897 862.973 12.2624C862.026 10.9352 860.797 9.83323 859.375 9.0349C857.956 8.23152 856.377 7.75044 854.751 7.62581L854.736 7.82502L854.751 7.62581C853.125 7.50117 851.491 7.73609 849.966 8.3139C849.966 8.31393 849.965 8.31396 849.965 8.31399L842.022 11.3124L842.021 11.3125C840.216 11.9982 838.683 13.249 837.649 14.8755C836.101 13.7197 834.219 13.0946 832.284 13.0975L823.806 13.1094C822.175 13.1099 820.563 13.469 819.087 14.1612C817.61 14.8533 816.303 15.8617 815.259 17.1149C814.215 18.3681 813.459 19.8355 813.045 21.4132C812.63 22.9909 812.568 24.6403 812.862 26.2448L817.116 49.4501C817.586 52.0134 818.941 54.3305 820.944 55.9975C822.947 57.6645 825.472 58.5757 828.078 58.5722L828.077 58.3722L828.078 58.5722L842.043 58.5522C844.431 58.5484 846.799 58.1144 849.033 57.2709L862.108 52.334L862.108 52.3339C864.544 51.4108 866.578 49.6629 867.858 47.3944C869.137 45.1259 869.58 42.4805 869.11 39.9188L864.857 16.7136ZM864.857 16.7136L864.66 16.7495L864.857 16.7135L864.857 16.7136ZM832.296 17.8799L832.296 17.8799L823.808 17.8804C823.807 17.8804 823.807 17.8804 823.807 17.8804C823.423 17.8815 823.04 17.9164 822.662 17.9847C821.004 18.2888 819.534 19.2392 818.577 20.6268C817.619 22.0145 817.252 23.7259 817.556 25.3844L821.81 48.5898C822.078 50.0543 822.852 51.3783 823.996 52.3308C825.14 53.2833 826.583 53.8039 828.072 53.802L842.034 53.7802C842.034 53.7802 842.034 53.7802 842.035 53.7802C842.142 53.7797 842.248 53.7785 842.354 53.7762L836.399 21.2905L836.399 21.2901M832.296 17.8799L832.296 17.6799C833.317 17.6796 834.307 18.0368 835.092 18.6897C835.877 19.3426 836.409 20.2498 836.596 21.254L836.399 21.2901M832.296 17.8799C833.271 17.8796 834.215 18.2205 834.964 18.8435C835.714 19.4664 836.221 20.332 836.399 21.2901M832.296 17.8799L836.399 21.2901M847.348 52.8061C847.248 52.8436 847.148 52.8803 847.048 52.9158L841.093 20.4297L841.093 20.4297C840.916 19.4687 841.083 18.4764 841.563 17.6256C842.044 16.7749 842.807 16.1197 843.721 15.7744L843.722 15.7743L851.661 12.7634C851.661 12.7634 851.661 12.7634 851.661 12.7634C852.533 12.4339 853.466 12.3002 854.396 12.3717C855.325 12.4433 856.227 12.7182 857.038 13.1772C857.85 13.6361 858.55 14.2679 859.09 15.0276C859.63 15.7873 859.996 16.6565 860.163 17.5736L860.163 17.5738L864.417 40.7792C864.686 42.2437 864.432 43.756 863.7 45.0525C862.968 46.349 861.804 47.3474 860.411 47.8737L847.349 52.806C847.348 52.806 847.348 52.8061 847.348 52.8061Z" fill="#F94E54" stroke="#F94E54" stroke-width="0.4"/>
<path opacity="0.12" d="M1282.82 126.783C1298.28 124.211 1302.47 115.129 1301.34 108.102C1301.04 106.218 1300.1 104.495 1298.68 103.221C1297.26 101.946 1295.45 101.196 1293.54 101.096C1293.71 100.133 1293.86 99.2523 1293.94 98.5889C1294.13 97.1449 1293.98 95.6766 1293.49 94.3029C1293.01 92.9292 1292.21 91.6887 1291.16 90.6819C1290.09 89.6401 1288.8 88.8637 1287.38 88.4155C1285.95 87.9674 1284.45 87.8601 1282.98 88.1024L1255.99 92.4405C1254.52 92.6712 1253.12 93.2453 1251.91 94.1162C1250.71 94.9872 1249.72 96.1305 1249.03 97.4537C1248.35 98.7396 1247.98 100.168 1247.95 101.624C1247.92 103.081 1248.24 104.523 1248.87 105.835C1249.16 106.438 1249.58 107.229 1250.04 108.09C1248.26 108.782 1246.77 110.062 1245.82 111.718C1244.87 113.373 1244.52 115.304 1244.82 117.188C1245.95 124.216 1252.78 131.526 1268.26 129.123C1268.52 129.816 1268.7 130.531 1268.83 131.258L1269.99 138.509C1270.13 139.132 1270.14 139.777 1270.01 140.403C1269.89 141.029 1269.63 141.62 1269.25 142.137C1268.88 142.655 1268.4 143.086 1267.84 143.403C1267.29 143.721 1266.67 143.916 1266.04 143.977L1263.68 144.355C1263.06 144.456 1262.5 144.8 1262.13 145.313C1261.76 145.826 1261.61 146.464 1261.71 147.089C1261.81 147.714 1262.15 148.273 1262.67 148.644C1263.18 149.014 1263.82 149.166 1264.44 149.066L1292.7 144.522C1293.33 144.422 1293.89 144.077 1294.26 143.565C1294.63 143.052 1294.78 142.413 1294.68 141.789C1294.58 141.164 1294.23 140.605 1293.72 140.234C1293.21 139.863 1292.57 139.712 1291.95 139.812L1289.61 140.188C1288.99 140.331 1288.34 140.341 1287.71 140.214C1287.08 140.088 1286.49 139.829 1285.97 139.455C1285.45 139.081 1285.02 138.601 1284.7 138.046C1284.38 137.491 1284.18 136.875 1284.12 136.238L1282.96 128.984C1282.85 128.256 1282.8 127.519 1282.82 126.783ZM1292.53 105.894C1293.47 105.743 1294.43 105.971 1295.2 106.527C1295.97 107.083 1296.48 107.922 1296.63 108.859C1297.4 113.649 1294.43 119.359 1284.11 121.671C1284.52 120.876 1285.02 120.13 1285.59 119.449C1288.8 115.464 1291.13 110.841 1292.42 105.888C1292.46 105.885 1292.49 105.901 1292.53 105.894ZM1249.53 116.431C1249.38 115.494 1249.61 114.536 1250.16 113.767C1250.72 112.998 1251.56 112.481 1252.5 112.33C1252.54 112.324 1252.57 112.297 1252.6 112.289C1255.38 116.589 1259.04 120.25 1263.33 123.028C1264.1 123.493 1264.8 124.045 1265.44 124.673C1254.91 125.713 1250.3 121.221 1249.53 116.431ZM1274.31 142.647C1274.86 141.075 1274.99 139.39 1274.7 137.752L1273.54 130.501C1273.16 128.13 1272.28 125.869 1270.94 123.874C1269.61 121.879 1267.86 120.199 1265.81 118.951C1260.28 115.144 1255.91 109.891 1253.17 103.766C1252.86 103.123 1252.71 102.416 1252.72 101.702C1252.74 100.988 1252.92 100.288 1253.26 99.6592C1253.6 98.9963 1254.1 98.4238 1254.7 97.988C1255.31 97.5522 1256.01 97.2653 1256.75 97.1507L1283.74 92.8126C1284.47 92.6911 1285.23 92.7453 1285.94 92.9707C1286.65 93.1961 1287.3 93.5864 1287.84 94.1099C1288.36 94.6017 1288.75 95.2088 1288.99 95.8817C1289.23 96.5546 1289.3 97.2742 1289.21 97.9821C1288.52 104.654 1286.02 111.009 1281.97 116.353C1280.41 118.18 1279.27 120.325 1278.63 122.637C1277.99 124.949 1277.86 127.373 1278.25 129.741L1279.41 136.995C1279.65 138.641 1280.31 140.2 1281.32 141.521L1274.31 142.647Z" fill="#F94E54"/>
<path opacity="0.12" d="M521.481 682.758L521.48 682.758L513.437 679.722L521.481 682.758ZM521.481 682.758C523.305 683.451 524.856 684.712 525.905 686.353C527.473 685.189 529.375 684.561 531.331 684.563C531.331 684.563 531.331 684.563 531.331 684.563L539.915 684.576C541.57 684.576 543.205 684.94 544.703 685.643C546.202 686.345 547.528 687.368 548.587 688.64C549.647 689.911 550.414 691.4 550.834 693.001C551.254 694.602 551.317 696.275 551.019 697.903L551.019 697.903M521.481 682.758L551.019 697.903M551.019 697.903L546.712 721.398C546.235 723.999 544.86 726.35 542.828 728.042C540.795 729.733 538.234 730.658 535.59 730.654L521.45 730.634C519.029 730.63 516.629 730.19 514.365 729.335L501.126 724.336L501.126 724.336M551.019 697.903L501.126 724.336M501.126 724.336C498.655 723.4 496.59 721.626 495.292 719.324C493.994 717.023 493.544 714.339 494.021 711.739L498.328 688.245M501.126 724.336L508.581 679.024M508.581 679.024C506.931 679.15 505.329 679.638 503.889 680.454C502.446 681.264 501.2 682.382 500.239 683.728C499.278 685.075 498.625 686.617 498.328 688.245M508.581 679.024C510.232 678.897 511.889 679.135 513.437 679.722L508.581 679.024ZM498.328 688.245L498.551 688.285M498.328 688.245L498.328 688.244L498.551 688.285M498.551 688.285L494.244 711.78C493.777 714.327 494.218 716.958 495.49 719.213C496.762 721.469 498.785 723.207 501.206 724.124L508.599 679.25C506.982 679.374 505.412 679.852 504 680.651C502.587 681.445 501.365 682.54 500.424 683.86C499.482 685.179 498.842 686.69 498.551 688.285ZM531.319 689.454L531.318 689.454C530.337 689.454 529.387 689.797 528.633 690.424C527.878 691.051 527.367 691.923 527.188 692.887L521.164 725.75C521.262 725.752 521.36 725.753 521.459 725.754C521.459 725.754 521.459 725.754 521.459 725.754L535.596 725.776C537.098 725.778 538.552 725.253 539.707 724.292C540.861 723.331 541.641 721.996 541.912 720.519L546.219 697.024C546.526 695.351 546.155 693.624 545.189 692.225C544.223 690.825 542.741 689.866 541.068 689.56C540.687 689.491 540.3 689.456 539.913 689.455C539.913 689.455 539.913 689.455 539.913 689.455L531.319 689.454ZM516.087 724.769C516.179 724.804 516.272 724.838 516.364 724.87L522.388 692.007L522.388 692.007C522.566 691.04 522.398 690.041 521.915 689.184C521.431 688.328 520.662 687.668 519.742 687.321L519.742 687.321L511.704 684.272C510.824 683.94 509.882 683.805 508.945 683.877C508.008 683.949 507.098 684.227 506.279 684.689C505.461 685.152 504.755 685.79 504.21 686.556C503.665 687.322 503.296 688.199 503.128 689.124L503.128 689.124L498.821 712.619C498.55 714.096 498.806 715.622 499.544 716.93C500.283 718.237 501.457 719.244 502.861 719.775L516.087 724.769C516.087 724.769 516.087 724.769 516.087 724.769Z" fill="#F94E54" stroke="#F94E54" stroke-width="0.453499"/>
<path opacity="0.12" d="M23.3035 653.122C8.29931 650.625 4.23169 641.811 5.32819 634.99C5.62357 633.162 6.53632 631.49 7.91446 630.253C9.29259 629.016 11.0529 628.288 12.9024 628.191C12.7337 627.256 12.5944 626.402 12.5127 625.758C12.3287 624.356 12.4774 622.931 12.9467 621.598C13.4161 620.265 14.1929 619.061 15.2143 618.084C16.2481 617.072 17.5055 616.319 18.8847 615.884C20.2639 615.449 21.7261 615.345 23.153 615.58L49.3433 619.79C50.772 620.014 52.1279 620.572 53.3012 621.417C54.4746 622.262 55.4325 623.372 56.0973 624.656C56.761 625.904 57.1213 627.291 57.1492 628.704C57.177 630.117 56.8715 631.517 56.2575 632.79C55.9781 633.376 55.5711 634.143 55.1249 634.979C56.8507 635.651 58.2942 636.893 59.2152 638.5C60.1361 640.107 60.4789 641.981 60.1864 643.809C59.0899 650.63 52.4647 657.725 37.4341 655.393C37.189 656.066 37.0061 656.759 36.8876 657.465L35.7562 664.503C35.6188 665.107 35.6118 665.734 35.7356 666.341C35.8594 666.948 36.1112 667.522 36.4743 668.024C36.8373 668.526 37.3033 668.945 37.841 669.253C38.3788 669.561 38.976 669.75 39.5928 669.809L41.8786 670.177C42.4848 670.274 43.0275 670.608 43.3872 671.106C43.747 671.604 43.8943 672.224 43.7969 672.83C43.6994 673.436 43.3651 673.979 42.8675 674.338C42.37 674.698 41.7499 674.846 41.1436 674.748L13.7146 670.339C13.1083 670.241 12.5657 669.907 12.2059 669.409C11.8462 668.912 11.6988 668.292 11.7963 667.685C11.8937 667.079 12.228 666.537 12.7256 666.177C13.2232 665.817 13.8433 665.67 14.4495 665.767L16.7169 666.132C17.3221 666.271 17.9502 666.28 18.559 666.157C19.1679 666.035 19.7436 665.784 20.2477 665.421C20.7517 665.058 21.1725 664.592 21.4818 664.053C21.7912 663.515 21.9821 662.916 22.0417 662.298L23.1734 655.258C23.2819 654.551 23.3255 653.836 23.3035 653.122ZM13.8795 632.848C12.9702 632.702 12.04 632.923 11.2937 633.462C10.5473 634.002 10.0459 634.816 9.8997 635.725C9.15229 640.375 12.0342 645.917 22.054 648.161C21.6589 647.389 21.1757 646.665 20.6139 646.004C17.4981 642.136 15.2404 637.649 13.9906 632.842C13.9537 632.839 13.9184 632.854 13.8795 632.848ZM55.6148 643.075C55.761 642.165 55.54 641.235 55.0004 640.489C54.4607 639.742 53.6467 639.241 52.7374 639.095C52.6985 639.088 52.6699 639.063 52.6336 639.055C49.9402 643.228 46.3901 646.781 42.2189 649.477C41.4783 649.929 40.7926 650.464 40.1755 651.074C50.3937 652.083 54.8674 647.724 55.6148 643.075ZM31.5629 668.518C31.0329 666.993 30.9027 665.358 31.1847 663.768L32.3161 656.73C32.6779 654.429 33.5364 652.234 34.832 650.298C36.1276 648.363 37.8292 646.732 39.8185 645.52C45.1806 641.825 49.4235 636.727 52.0829 630.783C52.3835 630.158 52.5323 629.472 52.5174 628.779C52.5024 628.087 52.324 627.407 51.9968 626.797C51.6628 626.153 51.182 625.598 50.5933 625.175C50.0046 624.752 49.3246 624.473 48.6083 624.362L22.4181 620.152C21.7021 620.034 20.9684 620.086 20.2764 620.305C19.5845 620.524 18.9539 620.903 18.4358 621.411C17.9337 621.888 17.5514 622.477 17.3201 623.13C17.0888 623.783 17.015 624.482 17.1048 625.169C17.7692 631.644 20.2008 637.812 24.1336 642.999C25.6429 644.772 26.7478 646.854 27.3714 649.098C27.9951 651.342 28.1225 653.695 27.745 655.993L26.6132 663.033C26.3827 664.631 25.7464 666.143 24.7651 667.425L31.5629 668.518Z" fill="#F94E54"/>
<path opacity="0.12" d="M346.702 33.9C346.021 33.8254 345.338 34.0243 344.804 34.4531C344.27 34.8818 343.928 35.5052 343.853 36.186C343.779 36.8669 343.978 37.5495 344.406 38.0837C344.835 38.6179 345.458 38.9599 346.139 39.0345L353.841 39.878C354.522 39.9525 355.205 39.7536 355.739 39.3249C356.273 38.8961 356.615 38.2728 356.69 37.5919C356.764 36.911 356.565 36.2284 356.136 35.6942C355.708 35.16 355.084 34.818 354.403 34.7435L346.702 33.9ZM332.142 24.5112C332.216 23.8303 332.558 23.2069 333.092 22.7782C333.627 22.3495 334.309 22.1505 334.99 22.2251L355.528 24.4745C356.209 24.549 356.832 24.891 357.261 25.4252C357.69 25.9594 357.889 26.642 357.814 27.3229C357.74 28.0038 357.398 28.6271 356.863 29.0558C356.329 29.4846 355.647 29.6835 354.966 29.609L334.428 27.3596C333.747 27.285 333.124 26.943 332.695 26.4088C332.266 25.8746 332.067 25.192 332.142 24.5112ZM356.09 19.3399L335.552 17.0906C334.872 17.016 334.248 16.674 333.819 16.1398C333.391 15.6056 333.192 14.923 333.266 14.2421C333.341 13.5613 333.683 12.9379 334.217 12.5092C334.751 12.0805 335.434 11.8815 336.115 11.9561L356.653 14.2054C357.334 14.28 357.957 14.622 358.386 15.1562C358.815 15.6904 359.013 16.373 358.939 17.0539C358.864 17.7347 358.522 18.3581 357.988 18.7868C357.454 19.2156 356.771 19.4145 356.09 19.3399ZM321.503 50.48L320.426 60.3203C320.385 60.6865 320.455 61.0564 320.625 61.3833C320.795 61.7101 321.058 61.9792 321.381 62.1564C321.704 62.3336 322.072 62.4111 322.439 62.3789C322.806 62.3467 323.155 62.2064 323.443 61.9757L325.633 60.2203L327.391 62.4082C327.621 62.6956 327.932 62.9082 328.283 63.019C328.635 63.1298 329.011 63.1339 329.365 63.0308C329.718 62.9277 330.034 62.722 330.27 62.4397C330.507 62.1574 330.655 61.8113 330.695 61.445L331.772 51.6047C333.853 50.6942 335.575 49.1211 336.669 47.1303C337.763 45.1396 338.168 42.8429 337.821 40.598C337.474 38.3531 336.394 36.2859 334.75 34.7185C333.106 33.151 330.99 32.1713 328.731 31.9317C327.862 31.8475 326.986 31.8756 326.124 32.0151L328.132 13.6798C328.356 11.6372 329.382 9.76706 330.984 8.48089C332.587 7.19472 334.634 6.59784 336.677 6.82155L357.215 9.07093C359.258 9.29465 361.128 10.3206 362.414 11.9232C363.7 13.5257 364.297 15.5736 364.073 17.6162L360.699 48.4232C360.476 50.4659 359.45 52.336 357.847 53.6222C356.245 54.9083 354.197 55.5052 352.154 55.2815L339.318 53.8756C338.637 53.8011 337.954 54 337.42 54.4287C336.886 54.8575 336.544 55.4808 336.469 56.1617C336.395 56.8426 336.594 57.5252 337.022 58.0594C337.451 58.5936 338.075 58.9356 338.755 59.0101L351.592 60.416C354.995 60.7846 358.406 59.7883 361.076 57.6454C363.746 55.5026 365.457 52.3883 365.834 48.9856L369.208 18.1786C369.577 14.775 368.58 11.3641 366.437 8.69418C364.295 6.02425 361.18 4.31322 357.778 3.93642L337.239 1.68705C333.836 1.3184 330.425 2.31477 327.755 4.4576C325.085 6.60043 323.374 9.71476 322.997 13.1175L320.641 34.6362C319.511 35.6554 318.624 36.9142 318.044 38.3206C317.464 39.7269 317.206 41.2451 317.289 42.7641C317.372 44.2831 317.793 45.7643 318.522 47.0994C319.251 48.4344 320.27 49.5895 321.503 50.48ZM322.472 41.6384C322.583 40.6229 322.993 39.6632 323.649 38.8806C324.306 38.098 325.18 37.5278 326.161 37.2419C327.142 36.956 328.185 36.9674 329.159 37.2746C330.134 37.5818 330.995 38.171 331.634 38.9678C332.274 39.7645 332.663 40.7329 332.752 41.7506C332.841 42.7683 332.626 43.7895 332.135 44.6852C331.643 45.5808 330.897 46.3107 329.991 46.7824C329.085 47.2541 328.059 47.4465 327.044 47.3353C325.682 47.1861 324.435 46.5021 323.578 45.4338C322.72 44.3654 322.323 43.0002 322.472 41.6384Z" fill="#F94E54"/>
</svg>
