<svg width="25" height="25" viewBox="0 0 25 25" fill="none" xmlns="http://www.w3.org/2000/svg">
<path fill-rule="evenodd" clip-rule="evenodd" d="M12.5 25C19.4036 25 25 19.4036 25 12.5C25 5.59644 19.4036 0 12.5 0C5.59644 0 0 5.59644 0 12.5C0 19.4036 5.59644 25 12.5 25ZM18.4067 9.81302C18.8644 9.35538 18.8644 8.61337 18.4067 8.15573C17.9491 7.69809 17.2072 7.69809 16.7495 8.15573L10.5469 14.3583L8.25052 12.062C7.79288 11.6043 7.05087 11.6043 6.59323 12.062C6.13559 12.5196 6.13559 13.2616 6.59323 13.7193L9.71823 16.8442C10.1759 17.3019 10.9179 17.3019 11.3755 16.8442L18.4067 9.81302Z" fill="#6BE486"/>
</svg>
