<svg width="40" height="43" viewBox="0 0 40 43" fill="none" xmlns="http://www.w3.org/2000/svg">
<path d="M26.4139 27.3587C37.0815 25.5837 39.9735 19.3172 39.1939 14.4679C38.9839 13.168 38.335 11.9793 37.3552 11.0997C36.3753 10.2202 35.1238 9.70275 33.8089 9.63369C33.9288 8.96924 34.0278 8.3615 34.0859 7.9037C34.2167 6.90731 34.111 5.89411 33.7773 4.94618C33.4436 3.99826 32.8913 3.14227 32.1652 2.44758C31.4301 1.72866 30.5361 1.1929 29.5555 0.883663C28.575 0.574425 27.5354 0.500393 26.5209 0.667562L7.90024 3.66103C6.88447 3.82025 5.92045 4.21639 5.08621 4.81738C4.25197 5.41836 3.57094 6.20732 3.09825 7.1204C2.62641 8.00769 2.37021 8.99365 2.35042 9.9984C2.33063 11.0032 2.54781 11.9984 2.98435 12.9036C3.18301 13.3201 3.4724 13.8654 3.78964 14.4596C2.56264 14.9373 1.5363 15.8209 0.88153 16.9633C0.226758 18.1056 -0.0169301 19.4378 0.191044 20.738C0.970631 25.5874 5.68096 30.6317 16.3674 28.9738C16.5416 29.4519 16.6717 29.9449 16.7559 30.4467L17.5603 35.4505C17.658 35.8801 17.663 36.3255 17.575 36.7572C17.487 37.1889 17.3079 37.5968 17.0498 37.9538C16.7917 38.3108 16.4604 38.6087 16.0781 38.8276C15.6957 39.0465 15.2711 39.1814 14.8326 39.2232L13.2075 39.4845C12.7765 39.5538 12.3906 39.7914 12.1349 40.1452C11.8791 40.499 11.7743 40.9398 11.8436 41.3709C11.9129 41.8019 12.1506 42.1877 12.5043 42.4435C12.8581 42.6992 13.299 42.804 13.73 42.7347L33.2314 39.5996C33.6624 39.5304 34.0483 39.2927 34.304 38.9389C34.5598 38.5852 34.6646 38.1443 34.5953 37.7133C34.526 37.2823 34.2883 36.8964 33.9346 36.6407C33.5808 36.3849 33.1399 36.2801 32.7089 36.3494L31.0968 36.6086C30.6665 36.7078 30.22 36.7141 29.7871 36.6269C29.3542 36.5398 28.9449 36.3613 28.5865 36.1032C28.2282 35.8452 27.929 35.5137 27.7091 35.1308C27.4891 34.7479 27.3534 34.3225 27.311 33.8829L26.5064 28.8776C26.4292 28.3752 26.3983 27.8667 26.4139 27.3587ZM33.1141 12.9446C33.7606 12.8407 34.422 12.9978 34.9526 13.3815C35.4833 13.7651 35.8398 14.3439 35.9437 14.9904C36.4751 18.2959 34.4262 22.2362 27.3023 23.8316C27.5832 23.2827 27.9267 22.7681 28.3261 22.2983C30.5414 19.5482 32.1466 16.3584 33.0351 12.9406C33.0614 12.9381 33.0865 12.949 33.1141 12.9446ZM3.44129 20.2155C3.33735 19.569 3.4945 18.9077 3.87816 18.377C4.26182 17.8464 4.84057 17.4899 5.48708 17.3859C5.51471 17.3815 5.53511 17.3632 5.56085 17.3574C7.47583 20.3245 9.99986 22.8505 12.9655 24.7677C13.492 25.0887 13.9795 25.4696 14.4183 25.9028C7.15338 26.6206 3.97268 23.521 3.44129 20.2155ZM20.5416 38.3054C20.9185 37.2211 21.0111 36.0583 20.8106 34.928L20.0061 29.9242C19.7489 28.2882 19.1385 26.7278 18.2174 25.3515C17.2963 23.9751 16.0865 22.8159 14.6721 21.9543C10.8598 19.3272 7.84321 15.7024 5.95241 11.4762C5.73871 11.0324 5.63287 10.5444 5.64351 10.0519C5.65415 9.55943 5.78097 9.07644 6.01363 8.64226C6.25109 8.18485 6.59293 7.78978 7.01147 7.48905C7.43001 7.18833 7.91349 6.99039 8.42276 6.91127L27.0434 3.9178C27.5525 3.83398 28.0741 3.87135 28.5661 4.02689C29.058 4.18243 29.5063 4.45175 29.8747 4.81301C30.2317 5.15238 30.5035 5.57129 30.668 6.03561C30.8324 6.49993 30.8849 6.99654 30.8211 7.48497C30.3486 12.0887 28.6199 16.4739 25.8237 20.1616C24.7506 21.4227 23.9651 22.9024 23.5217 24.4978C23.0783 26.0933 22.9877 27.7661 23.2561 29.4001L24.0608 34.4054C24.2247 35.5416 24.677 36.6169 25.3747 37.5285L20.5416 38.3054Z" fill="#F94E54"/>
</svg>
