<svg width="30" height="28" viewBox="0 0 30 28" fill="none" xmlns="http://www.w3.org/2000/svg">
<path d="M13.1228 26.6637L5.78917 25.3302L13.1228 26.6637ZM13.1228 26.6637C14.3641 26.8893 15.6359 26.8893 16.8772 26.6637H13.1228ZM17.6215 1.87483L17.6219 1.87476L22.0807 1.06514C22.0808 1.06512 22.0809 1.06511 22.0809 1.06509C22.9507 0.906107 23.8449 0.940549 24.6999 1.16598C25.5548 1.3914 26.3497 1.80226 27.028 2.3694C27.7081 2.93407 28.2553 3.64171 28.6307 4.44196C29.0062 5.24232 29.2005 6.11562 29.2 6.99967M17.6215 1.87483L12.3353 2.07154C13.3013 2.24711 14.1855 2.72247 14.8638 3.42753C14.9082 3.37755 14.9536 3.32857 14.9999 3.28061M17.6215 1.87483C16.6206 2.05865 15.7043 2.55122 14.9999 3.28061M17.6215 1.87483L15.1362 3.42747C15.0917 3.37751 15.0463 3.32855 14.9999 3.28061M29.2 6.99967L29 6.99954H29.2V6.99967ZM29.2 6.99967V19.5913C29.2002 21.0033 28.7052 22.3705 27.8012 23.4551C26.8972 24.5396 25.6415 25.2728 24.2527 25.5269L24.2524 25.527L16.9129 26.8605C15.648 27.0903 14.352 27.0903 13.0871 26.8605L13.0871 26.8605L5.75339 25.527L5.75337 25.527C4.36342 25.2741 3.10629 24.5415 2.2011 23.4568C1.29591 22.3721 0.800069 21.0042 0.8 19.5914V6.99954V6.99953C0.800059 6.11527 0.994488 5.24183 1.36953 4.44104C1.74456 3.64025 2.29104 2.93169 2.97027 2.36551C3.6495 1.79933 4.44488 1.38938 5.30011 1.16466C6.15534 0.939951 7.04952 0.905976 7.91933 1.06514M7.91933 1.06514L7.91912 1.0651L7.88333 1.26188L7.91933 1.06514ZM7.91933 1.06514L12.3711 1.87477L12.3353 2.07149L12.3711 1.87477C13.3747 2.05718 14.2936 2.54988 14.9999 3.28061M3.53333 19.5914V19.5914V6.99954C3.53333 6.12433 3.88101 5.28496 4.49988 4.66609C5.11871 4.04726 5.958 3.69959 6.83315 3.69954C7.03247 3.70004 7.23136 3.71808 7.42751 3.75348C7.42761 3.75349 7.42771 3.75351 7.4278 3.75353L11.884 4.5701L11.884 4.57011C12.3743 4.65982 12.8176 4.91835 13.1372 5.30082C13.4567 5.6833 13.6323 6.16558 13.6333 6.66398V24.1812C13.6138 24.1778 13.5941 24.1743 13.5745 24.1708L6.24263 22.8386C5.48227 22.7003 4.79459 22.2994 4.29947 21.706C3.80435 21.1126 3.53322 20.3642 3.53333 19.5914ZM26.4667 19.5914V19.5914C26.4668 20.3642 26.1956 21.1126 25.7005 21.706C25.2054 22.2994 24.5177 22.7003 23.7574 22.8386L16.4255 24.1708C16.4059 24.1743 16.3862 24.1778 16.3667 24.1812V6.66354V6.66351C16.3666 6.1639 16.5419 5.6801 16.8619 5.29648C17.182 4.91286 17.6266 4.65374 18.1181 4.56431L18.1184 4.56427L22.576 3.74765C23.052 3.66104 23.5412 3.68016 24.0089 3.80365C24.4767 3.92713 24.9116 4.15196 25.2829 4.46221C25.6541 4.77246 25.9526 5.16054 26.1571 5.59897C26.3617 6.0374 26.4674 6.51544 26.4667 6.99925V6.99954V19.5914Z" fill="#F94E54" stroke="#F94E54" stroke-width="0.4"/>
</svg>
