<svg width="33" height="42" viewBox="0 0 33 42" fill="none" xmlns="http://www.w3.org/2000/svg">
<path d="M14.8004 20.51C15.2362 20.5608 15.6341 20.7827 15.9064 21.1269C16.1786 21.471 16.3031 21.9093 16.2522 22.3451C16.2014 22.781 15.9795 23.1789 15.6354 23.4511C15.2912 23.7234 14.853 23.8478 14.4171 23.797L9.48665 23.2222C9.05077 23.1714 8.65293 22.9495 8.38065 22.6053C8.10837 22.2612 7.98395 21.823 8.03477 21.3871C8.08559 20.9512 8.30748 20.5533 8.65163 20.2811C8.99578 20.0088 9.434 19.8844 9.86988 19.9352L14.8004 20.51ZM25.2362 16.7292C25.287 16.2933 25.1626 15.8551 24.8903 15.511C24.618 15.1668 24.2202 14.9449 23.7843 14.8941L10.6363 13.3612C10.2004 13.3104 9.76223 13.4348 9.41808 13.7071C9.07393 13.9794 8.85204 14.3772 8.80122 14.8131C8.7504 15.249 8.87482 15.6872 9.1471 16.0313C9.41938 16.3755 9.81722 16.5974 10.2531 16.6482L23.4011 18.1811C23.8369 18.2319 24.2752 18.1075 24.6193 17.8352C24.9635 17.5629 25.1854 17.1651 25.2362 16.7292ZM11.0196 10.0742L24.1675 11.6071C24.6034 11.6579 25.0416 11.5335 25.3858 11.2612C25.7299 10.989 25.9518 10.5911 26.0026 10.1552C26.0534 9.71936 25.929 9.28114 25.6567 8.93699C25.3845 8.59284 24.9866 8.37095 24.5507 8.32013L11.4028 6.78723C10.9669 6.73641 10.5287 6.86083 10.1845 7.13311C9.84038 7.40539 9.61849 7.80323 9.56767 8.23911C9.51685 8.67499 9.64127 9.11321 9.91355 9.45736C10.1858 9.80151 10.5837 10.0234 11.0196 10.0742ZM28.1655 34.4687L27.431 40.7682C27.4038 41.0027 27.3076 41.2238 27.1547 41.4036C27.0018 41.5834 26.7989 41.7138 26.5719 41.7783C26.3448 41.8427 26.1037 41.8384 25.8792 41.7658C25.6545 41.6933 25.4565 41.5557 25.3101 41.3705L24.1935 39.961L22.7824 41.0758C22.5974 41.2224 22.373 41.3107 22.1378 41.3296C21.9025 41.3486 21.6669 41.2973 21.4607 41.1824C21.2546 41.0674 21.0872 40.8938 20.9798 40.6837C20.8723 40.4735 20.8296 40.2362 20.857 40.0018L21.5915 33.7023C20.422 32.836 19.5719 31.6073 19.1734 30.2075C18.7749 28.8078 18.8504 27.3156 19.3883 25.9632C19.9261 24.6109 20.8961 23.4744 22.1471 22.7307C23.398 21.987 24.8598 21.6778 26.3048 21.8513C26.8596 21.923 27.4028 22.0659 27.9211 22.2763L29.2896 10.5385C29.4421 9.23082 29.0688 7.91617 28.252 6.88372C27.4351 5.85127 26.2416 5.1856 24.934 5.03314L11.786 3.50024C10.4784 3.34778 9.16371 3.72103 8.13126 4.53787C7.09881 5.35472 6.43314 6.54824 6.28068 7.85589L3.98133 27.5778C3.82887 28.8855 4.20212 30.2001 5.01896 31.2326C5.83581 32.265 7.02933 32.9307 8.33698 33.0831L16.5545 34.0412C16.9903 34.092 17.3882 34.3139 17.6605 34.6581C17.9327 35.0022 18.0572 35.4404 18.0063 35.8763C17.9555 36.3122 17.7336 36.71 17.3895 36.9823C17.0453 37.2546 16.6071 37.379 16.1712 37.3282L7.95375 36.3701C5.77545 36.1135 3.78785 35.0034 2.42695 33.2833C1.06604 31.5632 0.44295 29.3735 0.694341 27.1946L2.99369 7.47266C3.2503 5.29436 4.36042 3.30676 6.08053 1.94586C7.80065 0.584954 9.99031 -0.0381407 12.1692 0.21325L25.3172 1.74615C27.4955 2.00276 29.4831 3.11288 30.844 4.83299C32.2049 6.55311 32.828 8.74277 32.5766 10.9217L30.9705 24.6975C31.53 25.4955 31.9039 26.4085 32.0649 27.3698C32.2259 28.331 32.1699 29.3161 31.901 30.2528C31.6321 31.1896 31.1571 32.0544 30.5107 32.7838C29.8644 33.5133 29.0631 34.089 28.1655 34.4687ZM28.8254 28.8085C28.9012 28.1584 28.7825 27.5004 28.4843 26.9178C28.1862 26.3351 27.7219 25.854 27.1503 25.5352C26.5787 25.2164 25.9254 25.0742 25.273 25.1267C24.6206 25.1792 23.9984 25.424 23.4851 25.8301C22.9718 26.2362 22.5905 26.7853 22.3893 27.4082C22.1881 28.031 22.1762 28.6995 22.3549 29.3291C22.5337 29.9587 22.8952 30.5212 23.3936 30.9454C23.892 31.3696 24.505 31.6365 25.1552 31.7123C26.0269 31.8139 26.9034 31.5651 27.5916 31.0205C28.2799 30.476 28.7237 29.6803 28.8254 28.8085Z" fill="#F94E54"/>
</svg>
